<svg width="175" height="58" viewBox="0 0 175 58" fill="none" xmlns="http://www.w3.org/2000/svg">
<path d="M3.63281 24V14.6719H0.375V12.7266H9.25781V14.6719H5.99219V24H3.63281ZM10.5625 24V12.7266H17.9453V14.6719H12.9219V17.6953H17.5078V19.5625H12.9219V24H10.5625ZM19.3438 24V12.7266H26.7266V14.6719H21.7031V17.6953H26.2891V19.5625H21.7031V24H19.3438ZM27.0234 26.3516L27.5938 22.0312H29.75L28.6016 26.3516H27.0234ZM33.75 24V12.7266H36.1094V17.8828H36.1641L40.2969 12.7266H42.9219L38.8828 17.7031L43.2109 24H40.3906L37.1641 19.2422L36.1094 20.5469V24H33.75ZM46.7344 24.1719C44.8906 24.1719 43.8438 22.9922 43.8438 21.0312V15.625H46.125V20.5547C46.125 21.6484 46.6406 22.2812 47.6641 22.2812C48.6875 22.2812 49.3359 21.5312 49.3359 20.4375V15.625H51.6172V24H49.3359V22.6172H49.2891C48.8594 23.5781 48 24.1719 46.7344 24.1719ZM53.1016 24V15.625H55.3828V17H55.4297C55.8594 16.0391 56.7188 15.4531 57.9844 15.4531C59.8281 15.4531 60.875 16.6328 60.875 18.5938V24H58.5938V19.0625C58.5938 17.9688 58.0781 17.3438 57.0547 17.3438C56.0312 17.3438 55.3828 18.0938 55.3828 19.1875V24H53.1016ZM65.6484 24.1719C63.7891 24.1719 62.9141 23.4531 62.9141 21.6562V17.3438H61.75V15.625H62.9141V13.5781H65.2188V15.625H66.75V17.3438H65.2188V21.4062C65.2188 22.1875 65.5703 22.4531 66.2578 22.4531C66.4609 22.4531 66.6094 22.4297 66.75 22.4141V24.0859C66.4922 24.125 66.125 24.1719 65.6484 24.1719ZM67.8516 24V22.7031L72.0625 17.3828V17.3438H67.9141V15.625H74.6719V17.0703L70.7109 22.2344V22.2812H74.7656V24H67.8516ZM79.3516 24V12.7266H81.6328V18.9766H81.6797L84.5078 15.625H87.0938L83.9297 19.2266L87.25 24H84.6172L82.2188 20.5781L81.6328 21.2266V24H79.3516ZM90.3281 24.1328C88.6484 24.1328 87.5156 23.0781 87.5156 21.6016V21.5859C87.5156 20.0625 88.6953 19.1719 90.7734 19.0391L92.8438 18.9141V18.3984C92.8438 17.6562 92.3594 17.1953 91.4688 17.1953C90.6172 17.1953 90.1016 17.5938 89.9922 18.1328L89.9766 18.2031H87.8906L87.8984 18.1094C88.0234 16.5625 89.3516 15.4531 91.5625 15.4531C93.7266 15.4531 95.125 16.5703 95.125 18.2578V24H92.8438V22.75H92.7969C92.3203 23.6094 91.4297 24.1328 90.3281 24.1328ZM89.7734 21.4844C89.7734 22.1016 90.2812 22.4688 91.0703 22.4688C92.0938 22.4688 92.8438 21.8125 92.8438 20.9375V20.3359L91.1172 20.4453C90.2344 20.5 89.7734 20.875 89.7734 21.4688V21.4844ZM96.6016 24V15.625H98.8828V17.0859H98.9297C99.1797 16.0547 99.8594 15.4531 100.836 15.4531C101.086 15.4531 101.32 15.4922 101.492 15.5391V17.5469C101.305 17.4688 100.992 17.4219 100.664 17.4219C99.5391 17.4219 98.8828 18.0938 98.8828 19.3125V24H96.6016ZM104.719 24.1328C103.039 24.1328 101.906 23.0781 101.906 21.6016V21.5859C101.906 20.0625 103.086 19.1719 105.164 19.0391L107.234 18.9141V18.3984C107.234 17.6562 106.75 17.1953 105.859 17.1953C105.008 17.1953 104.492 17.5938 104.383 18.1328L104.367 18.2031H102.281L102.289 18.1094C102.414 16.5625 103.742 15.4531 105.953 15.4531C108.117 15.4531 109.516 16.5703 109.516 18.2578V24H107.234V22.75H107.188C106.711 23.6094 105.82 24.1328 104.719 24.1328ZM104.164 21.4844C104.164 22.1016 104.672 22.4688 105.461 22.4688C106.484 22.4688 107.234 21.8125 107.234 20.9375V20.3359L105.508 20.4453C104.625 20.5 104.164 20.875 104.164 21.4688V21.4844ZM110.992 24V15.625H113.273V17.0859H113.32C113.57 16.0547 114.25 15.4531 115.227 15.4531C115.477 15.4531 115.711 15.4922 115.883 15.5391V17.5469C115.695 17.4688 115.383 17.4219 115.055 17.4219C113.93 17.4219 113.273 18.0938 113.273 19.3125V24H110.992ZM116.867 24V15.625H119.148V24H116.867ZM120.68 24V15.625H122.961V17H123.008C123.438 16.0391 124.297 15.4531 125.562 15.4531C127.406 15.4531 128.453 16.6328 128.453 18.5938V24H126.172V19.0625C126.172 17.9688 125.656 17.3438 124.633 17.3438C123.609 17.3438 122.961 18.0938 122.961 19.1875V24H120.68ZM129.945 24V15.625H132.227V24H129.945ZM0.742188 45V36.625H3.02344V38.0859H3.07031C3.32031 37.0547 4 36.4531 4.97656 36.4531C5.22656 36.4531 5.46094 36.4922 5.63281 36.5391V38.5469C5.44531 38.4688 5.13281 38.4219 4.80469 38.4219C3.67969 38.4219 3.02344 39.0938 3.02344 40.3125V45H0.742188ZM10.1016 45.1719C7.53906 45.1719 5.98438 43.5078 5.98438 40.8281V40.8203C5.98438 38.1562 7.55469 36.4531 10.0078 36.4531C12.4609 36.4531 14 38.1172 14 40.6484V41.3516H8.23438C8.25781 42.6875 8.98438 43.4688 10.1484 43.4688C11.0859 43.4688 11.6562 42.9531 11.8203 42.4844L11.8359 42.4375H13.9297L13.9062 42.5234C13.6484 43.7578 12.4922 45.1719 10.1016 45.1719ZM10.0469 38.1562C9.10938 38.1562 8.40625 38.7812 8.25781 39.9141H11.8125C11.6719 38.7578 10.9922 38.1562 10.0469 38.1562ZM18.625 45.1719C16.3047 45.1719 15.0156 44.1016 14.8359 42.5156L14.8281 42.4453H17.0547L17.0703 42.5156C17.2188 43.1719 17.7109 43.5547 18.625 43.5547C19.4844 43.5547 20.0078 43.2188 20.0078 42.6797V42.6719C20.0078 42.2266 19.7266 41.9688 18.9062 41.7891L17.4844 41.4922C15.8594 41.1484 15.0391 40.3359 15.0391 39.0859V39.0781C15.0391 37.4844 16.4141 36.4531 18.5469 36.4531C20.7734 36.4531 22.0156 37.6328 22.0703 39.1016V39.1797H19.9688L19.9609 39.1172C19.8828 38.5156 19.3906 38.0625 18.5469 38.0625C17.7578 38.0625 17.2656 38.4141 17.2656 38.9531V38.9609C17.2656 39.3906 17.5547 39.6719 18.3984 39.8516L19.8203 40.1562C21.5703 40.5234 22.2891 41.2109 22.2891 42.4453V42.4531C22.2891 44.0938 20.7812 45.1719 18.625 45.1719ZM23.4141 45V36.625H25.6953V38.0312H25.7422C26.0859 37.0781 26.9609 36.4531 28.0859 36.4531C29.2578 36.4531 30.1094 37.0781 30.3906 38.1797H30.4375C30.8125 37.125 31.8125 36.4531 33.0391 36.4531C34.6797 36.4531 35.7812 37.5859 35.7812 39.2734V45H33.5V39.8438C33.5 38.875 33.0156 38.3438 32.1328 38.3438C31.2656 38.3438 30.6953 38.9766 30.6953 39.9062V45H28.5V39.7734C28.5 38.875 27.9922 38.3438 27.1484 38.3438C26.2812 38.3438 25.6953 39 25.6953 39.9453V45H23.4141ZM41.0391 45.1719C38.4766 45.1719 36.9219 43.5078 36.9219 40.8281V40.8203C36.9219 38.1562 38.4922 36.4531 40.9453 36.4531C43.3984 36.4531 44.9375 38.1172 44.9375 40.6484V41.3516H39.1719C39.1953 42.6875 39.9219 43.4688 41.0859 43.4688C42.0234 43.4688 42.5938 42.9531 42.7578 42.4844L42.7734 42.4375H44.8672L44.8438 42.5234C44.5859 43.7578 43.4297 45.1719 41.0391 45.1719ZM40.9844 38.1562C40.0469 38.1562 39.3438 38.7812 39.1953 39.9141H42.75C42.6094 38.7578 41.9297 38.1562 40.9844 38.1562ZM46.1172 45V36.625H48.3984V38H48.4453C48.875 37.0391 49.7344 36.4531 51 36.4531C52.8438 36.4531 53.8906 37.6328 53.8906 39.5938V45H51.6094V40.0625C51.6094 38.9688 51.0938 38.3438 50.0703 38.3438C49.0469 38.3438 48.3984 39.0938 48.3984 40.1875V45H46.1172ZM60.7188 45L57.8203 36.625H60.2578L62.0078 42.9844H62.0547L63.7812 36.625H66.1641L63.2891 45H60.7188ZM70.4766 45.1719C67.9141 45.1719 66.3594 43.5078 66.3594 40.8281V40.8203C66.3594 38.1562 67.9297 36.4531 70.3828 36.4531C72.8359 36.4531 74.375 38.1172 74.375 40.6484V41.3516H68.6094C68.6328 42.6875 69.3594 43.4688 70.5234 43.4688C71.4609 43.4688 72.0312 42.9531 72.1953 42.4844L72.2109 42.4375H74.3047L74.2812 42.5234C74.0234 43.7578 72.8672 45.1719 70.4766 45.1719ZM70.4219 38.1562C69.4844 38.1562 68.7812 38.7812 68.6328 39.9141H72.1875C72.0469 38.7578 71.3672 38.1562 70.4219 38.1562ZM75.5547 45V36.625H77.8359V38.0859H77.8828C78.1328 37.0547 78.8125 36.4531 79.7891 36.4531C80.0391 36.4531 80.2734 36.4922 80.4453 36.5391V38.5469C80.2578 38.4688 79.9453 38.4219 79.6172 38.4219C78.4922 38.4219 77.8359 39.0938 77.8359 40.3125V45H75.5547ZM84.2031 45.1719C82.0938 45.1719 80.7969 43.5312 80.7969 40.8125V40.8047C80.7969 38.0781 82.0938 36.4531 84.2031 36.4531C85.3906 36.4531 86.3281 37.0625 86.7812 38.0781H86.8281V33.7266H89.1094V45H86.8281V43.5703H86.7812C86.3359 44.5625 85.4141 45.1719 84.2031 45.1719ZM84.9688 43.2812C86.0781 43.2812 86.8359 42.3281 86.8359 40.8125V40.8047C86.8359 39.2969 86.0703 38.3438 84.9688 38.3438C83.8359 38.3438 83.1172 39.2734 83.1172 40.8047V40.8125C83.1172 42.3359 83.8281 43.2812 84.9688 43.2812ZM91.8203 35.5469C91.1328 35.5469 90.6016 35.0078 90.6016 34.3594C90.6016 33.7109 91.1328 33.1719 91.8203 33.1719C92.5078 33.1719 93.0391 33.7109 93.0391 34.3594C93.0391 35.0078 92.5078 35.5469 91.8203 35.5469ZM90.6797 45V36.625H92.9609V45H90.6797Z" fill="#333333"/>
</svg>
