<svg width="158" height="76" viewBox="0 0 158 76" fill="none" xmlns="http://www.w3.org/2000/svg">
<path d="M0.9375 12V0.726562H3.66406L6.86719 8.82812H6.91406L10.1172 0.726562H12.8438V12H10.7422V4.375H10.6719L7.63281 12H6.14844L3.10156 4.375H3.03906V12H0.9375ZM16.8438 12.1328C15.1641 12.1328 14.0312 11.0781 14.0312 9.60156V9.58594C14.0312 8.0625 15.2109 7.17188 17.2891 7.03906L19.3594 6.91406V6.39844C19.3594 5.65625 18.875 5.19531 17.9844 5.19531C17.1328 5.19531 16.6172 5.59375 16.5078 6.13281L16.4922 6.20312H14.4062L14.4141 6.10938C14.5391 4.5625 15.8672 3.45312 18.0781 3.45312C20.2422 3.45312 21.6406 4.57031 21.6406 6.25781V12H19.3594V10.75H19.3125C18.8359 11.6094 17.9453 12.1328 16.8438 12.1328ZM16.2891 9.48438C16.2891 10.1016 16.7969 10.4688 17.5859 10.4688C18.6094 10.4688 19.3594 9.8125 19.3594 8.9375V8.33594L17.6328 8.44531C16.75 8.5 16.2891 8.875 16.2891 9.46875V9.48438ZM23.1719 12V0.726562H25.4531V5.07031H25.5C25.9297 4.03125 26.8125 3.45312 28.0703 3.45312C29.8828 3.45312 31.0078 4.71875 31.0078 6.74219V12H28.7266V7.21094C28.7266 6.03906 28.1484 5.34375 27.1094 5.34375C26.1016 5.34375 25.4531 6.10938 25.4531 7.20312V12H23.1719ZM32.4766 12V3.625H34.7578V5.03125H34.8047C35.1484 4.07812 36.0234 3.45312 37.1484 3.45312C38.3203 3.45312 39.1719 4.07812 39.4531 5.17969H39.5C39.875 4.125 40.875 3.45312 42.1016 3.45312C43.7422 3.45312 44.8438 4.58594 44.8438 6.27344V12H42.5625V6.84375C42.5625 5.875 42.0781 5.34375 41.1953 5.34375C40.3281 5.34375 39.7578 5.97656 39.7578 6.90625V12H37.5625V6.77344C37.5625 5.875 37.0547 5.34375 36.2109 5.34375C35.3438 5.34375 34.7578 6 34.7578 6.94531V12H32.4766ZM49.1406 12.1719C47.2969 12.1719 46.25 10.9922 46.25 9.03125V3.625H48.5312V8.55469C48.5312 9.64844 49.0469 10.2812 50.0703 10.2812C51.0938 10.2812 51.7422 9.53125 51.7422 8.4375V3.625H54.0234V12H51.7422V10.6172H51.6953C51.2656 11.5781 50.4062 12.1719 49.1406 12.1719ZM58.8359 12.1719C56.9766 12.1719 56.1016 11.4531 56.1016 9.65625V5.34375H54.9375V3.625H56.1016V1.57812H58.4062V3.625H59.9375V5.34375H58.4062V9.40625C58.4062 10.1875 58.7578 10.4531 59.4453 10.4531C59.6484 10.4531 59.7969 10.4297 59.9375 10.4141V12.0859C59.6797 12.125 59.3125 12.1719 58.8359 12.1719ZM67.2578 12V2.67188H64V0.726562H72.8828V2.67188H69.6172V12H67.2578ZM75.8125 12.1719C73.9688 12.1719 72.9219 10.9922 72.9219 9.03125V3.625H75.2031V8.55469C75.2031 9.64844 75.7188 10.2812 76.7422 10.2812C77.7656 10.2812 78.4141 9.53125 78.4141 8.4375V3.625H80.6953V12H78.4141V10.6172H78.3672C77.9375 11.5781 77.0781 12.1719 75.8125 12.1719ZM82.1797 12V3.625H84.4609V5H84.5078C84.9375 4.03906 85.7969 3.45312 87.0625 3.45312C88.9062 3.45312 89.9531 4.63281 89.9531 6.59375V12H87.6719V7.0625C87.6719 5.96875 87.1562 5.34375 86.1328 5.34375C85.1094 5.34375 84.4609 6.09375 84.4609 7.1875V12H82.1797ZM95.2266 12.1719C92.6719 12.1719 91.0938 10.5078 91.0938 7.80469V7.79688C91.0938 5.11719 92.6953 3.45312 95.2031 3.45312C97.4766 3.45312 98.9219 4.85156 99.0078 6.66406V6.71875H96.8906L96.875 6.64844C96.7344 5.85156 96.1797 5.24219 95.2344 5.24219C94.1172 5.24219 93.4141 6.20312 93.4141 7.80469V7.8125C93.4141 9.45312 94.1172 10.3828 95.2422 10.3828C96.1562 10.3828 96.7266 9.82031 96.8828 8.97656L96.8906 8.90625H99.0156V8.95312C98.9062 10.7812 97.4609 12.1719 95.2266 12.1719ZM103.93 12.1719C101.367 12.1719 99.8125 10.5078 99.8125 7.82812V7.82031C99.8125 5.15625 101.383 3.45312 103.836 3.45312C106.289 3.45312 107.828 5.11719 107.828 7.64844V8.35156H102.062C102.086 9.6875 102.812 10.4688 103.977 10.4688C104.914 10.4688 105.484 9.95312 105.648 9.48438L105.664 9.4375H107.758L107.734 9.52344C107.477 10.7578 106.32 12.1719 103.93 12.1719ZM103.875 5.15625C102.938 5.15625 102.234 5.78125 102.086 6.91406H105.641C105.5 5.75781 104.82 5.15625 103.875 5.15625ZM109.008 12V3.625H111.289V5.08594H111.336C111.586 4.05469 112.266 3.45312 113.242 3.45312C113.492 3.45312 113.727 3.49219 113.898 3.53906V5.54688C113.711 5.46875 113.398 5.42188 113.07 5.42188C111.945 5.42188 111.289 6.09375 111.289 7.3125V12H109.008ZM113.539 14.3516L114.109 10.0312H116.266L115.117 14.3516H113.539ZM2.05469 35.7578C1.60938 35.7578 1.15625 35.7031 0.890625 35.6562V33.9609C1.05469 33.9922 1.32031 34.0391 1.65625 34.0391C2.33594 34.0391 2.71094 33.8438 2.91406 33.2734L3.01562 33L0.0546875 24.625H2.5625L4.32812 31.1719H4.39062L6.16406 24.625H8.57031L5.69531 33.1484C5.03906 35.125 3.91406 35.7578 2.05469 35.7578ZM11.6562 33.1328C9.97656 33.1328 8.84375 32.0781 8.84375 30.6016V30.5859C8.84375 29.0625 10.0234 28.1719 12.1016 28.0391L14.1719 27.9141V27.3984C14.1719 26.6562 13.6875 26.1953 12.7969 26.1953C11.9453 26.1953 11.4297 26.5938 11.3203 27.1328L11.3047 27.2031H9.21875L9.22656 27.1094C9.35156 25.5625 10.6797 24.4531 12.8906 24.4531C15.0547 24.4531 16.4531 25.5703 16.4531 27.2578V33H14.1719V31.75H14.125C13.6484 32.6094 12.7578 33.1328 11.6562 33.1328ZM11.1016 30.4844C11.1016 31.1016 11.6094 31.4688 12.3984 31.4688C13.4219 31.4688 14.1719 30.8125 14.1719 29.9375V29.3359L12.4453 29.4453C11.5625 29.5 11.1016 29.875 11.1016 30.4688V30.4844ZM21.1484 36.7109C20.6016 36.7109 20.0859 36.6328 19.8359 36.5234V35.4297C20.0234 35.4922 20.3203 35.5391 20.6172 35.5391C21.0391 35.5391 21.3438 35.4062 21.3438 35.1094V35.0938C21.3438 34.7891 21.0781 34.6094 20.5 34.6094H20.2031V33.9297L20.6953 33.1406C18.8047 32.9531 17.75 31.9375 17.5859 30.5156L17.5781 30.4453H19.8047L19.8203 30.5156C19.9688 31.1719 20.4609 31.5547 21.375 31.5547C22.2344 31.5547 22.7578 31.2188 22.7578 30.6797V30.6719C22.7578 30.2266 22.4766 29.9688 21.6562 29.7891L20.2344 29.4922C18.6094 29.1484 17.7891 28.3359 17.7891 27.0859V27.0781C17.7891 25.4844 19.1641 24.4531 21.2969 24.4531C23.5234 24.4531 24.7656 25.6328 24.8203 27.1016V27.1797H22.7188L22.7109 27.1172C22.6328 26.5156 22.1406 26.0625 21.2969 26.0625C20.5078 26.0625 20.0156 26.4141 20.0156 26.9531V26.9609C20.0156 27.3906 20.3047 27.6719 21.1484 27.8516L22.5703 28.1562C24.3203 28.5234 25.0391 29.2109 25.0391 30.4453L25.0312 30.4531C25.0312 31.9375 23.8047 32.9531 21.9844 33.1406L21.6719 33.6406C22.5391 33.7266 23.0938 34.2422 23.0938 35.1562V35.1719C23.0938 36.125 22.2734 36.7109 21.1484 36.7109ZM28.6562 33.1328C26.9766 33.1328 25.8438 32.0781 25.8438 30.6016V30.5859C25.8438 29.0625 27.0234 28.1719 29.1016 28.0391L31.1719 27.9141V27.3984C31.1719 26.6562 30.6875 26.1953 29.7969 26.1953C28.9453 26.1953 28.4297 26.5938 28.3203 27.1328L28.3047 27.2031H26.2188L26.2266 27.1094C26.3516 25.5625 27.6797 24.4531 29.8906 24.4531C32.0547 24.4531 33.4531 25.5703 33.4531 27.2578V33H31.1719V31.75H31.125C30.6484 32.6094 29.7578 33.1328 28.6562 33.1328ZM28.1016 30.4844C28.1016 31.1016 28.6094 31.4688 29.3984 31.4688C30.4219 31.4688 31.1719 30.8125 31.1719 29.9375V29.3359L29.4453 29.4453C28.5625 29.5 28.1016 29.875 28.1016 30.4688V30.4844ZM38.0312 33.1719C35.9219 33.1719 34.625 31.5312 34.625 28.8125V28.8047C34.625 26.0781 35.9219 24.4531 38.0312 24.4531C39.2188 24.4531 40.1562 25.0625 40.6094 26.0781H40.6562V21.7266H42.9375V33H40.6562V31.5703H40.6094C40.1641 32.5625 39.2422 33.1719 38.0312 33.1719ZM38.7969 31.2812C39.9062 31.2812 40.6641 30.3281 40.6641 28.8125V28.8047C40.6641 27.2969 39.8984 26.3438 38.7969 26.3438C37.6641 26.3438 36.9453 27.2734 36.9453 28.8047V28.8125C36.9453 30.3359 37.6562 31.2812 38.7969 31.2812ZM44.5078 33V24.625H46.7891V33H44.5078ZM52.2109 23.7109C50.5469 23.7109 49.4375 22.6875 49.4375 21.1484V21.0703H50.8438V21.1016C50.8438 21.8203 51.3672 22.3906 52.2109 22.3906C53.0469 22.3906 53.5703 21.8203 53.5703 21.1016V21.0703H54.9766V21.1484C54.9766 22.6875 53.8672 23.7109 52.2109 23.7109ZM52.2344 35.9062C49.9297 35.9062 48.4766 34.8672 48.2578 33.5234L48.25 33.4531H50.4688L50.4922 33.5078C50.6719 33.9219 51.2812 34.2812 52.2344 34.2812C53.4141 34.2812 54.0391 33.6719 54.0391 32.7344V31.4531H53.9922C53.5547 32.3281 52.6172 32.8828 51.4062 32.8828C49.3125 32.8828 48.0156 31.3203 48.0156 28.7188V28.7109C48.0156 26.0391 49.3281 24.4531 51.4453 24.4531C52.625 24.4531 53.5391 25.0781 53.9922 26.0547H54.0391V24.625H56.3203V32.7656C56.3203 34.6328 54.75 35.9062 52.2344 35.9062ZM52.1953 31.2109C53.3125 31.2109 54.0469 30.2734 54.0469 28.7734V28.7656C54.0469 27.2734 53.3047 26.3438 52.1953 26.3438C51.0625 26.3438 50.3359 27.2656 50.3359 28.7656V28.7734C50.3359 30.2812 51.0547 31.2109 52.1953 31.2109ZM57.8672 33V24.625H60.1484V33H57.8672ZM64.9297 33V21.7266H67.2109V27.9766H67.2578L70.0859 24.625H72.6719L69.5078 28.2266L72.8281 33H70.1953L67.7969 29.5781L67.2109 30.2266V33H64.9297ZM76.9141 33.1719C74.3672 33.1719 72.7656 31.5391 72.7656 28.8125V28.7969C72.7656 26.1016 74.4062 24.4531 76.9062 24.4531C79.4141 24.4531 81.0625 26.0859 81.0625 28.7969V28.8125C81.0625 31.5469 79.4453 33.1719 76.9141 33.1719ZM76.9219 31.3828C78.0312 31.3828 78.7422 30.4453 78.7422 28.8125V28.7969C78.7422 27.1797 78.0156 26.2422 76.9062 26.2422C75.8047 26.2422 75.0859 27.1797 75.0859 28.7969V28.8125C75.0859 30.4531 75.7969 31.3828 76.9219 31.3828ZM82.2422 33V24.625H84.5234V26.0859H84.5703C84.8203 25.0547 85.5 24.4531 86.4766 24.4531C86.7266 24.4531 86.9609 24.4922 87.1328 24.5391V26.5469C86.9453 26.4688 86.6328 26.4219 86.3047 26.4219C85.1797 26.4219 84.5234 27.0938 84.5234 28.3125V33H82.2422ZM88.1484 33V21.7266H90.4297V27.9766H90.4766L93.3047 24.625H95.8906L92.7266 28.2266L96.0469 33H93.4141L91.0156 29.5781L90.4297 30.2266V33H88.1484ZM99.5312 33.1719C97.6875 33.1719 96.6406 31.9922 96.6406 30.0312V24.625H98.9219V29.5547C98.9219 30.6484 99.4375 31.2812 100.461 31.2812C101.484 31.2812 102.133 30.5312 102.133 29.4375V24.625H104.414V33H102.133V31.6172H102.086C101.656 32.5781 100.797 33.1719 99.5312 33.1719ZM105.898 33V24.625H108.18V26H108.227C108.656 25.0391 109.516 24.4531 110.781 24.4531C112.625 24.4531 113.672 25.6328 113.672 27.5938V33H111.391V28.0625C111.391 26.9688 110.875 26.3438 109.852 26.3438C108.828 26.3438 108.18 27.0938 108.18 28.1875V33H105.898ZM118.812 36.7109C118.266 36.7109 117.75 36.6328 117.5 36.5234V35.4297C117.688 35.4922 117.984 35.5391 118.281 35.5391C118.703 35.5391 119.008 35.4062 119.008 35.1094V35.0938C119.008 34.7891 118.742 34.6094 118.164 34.6094H117.867V33.9297L118.359 33.1406C116.156 32.9062 114.812 31.2969 114.812 28.8047V28.7969C114.812 26.1172 116.414 24.4531 118.922 24.4531C121.195 24.4531 122.641 25.8516 122.727 27.6641V27.7188H120.609L120.594 27.6484C120.453 26.8516 119.898 26.2422 118.953 26.2422C117.836 26.2422 117.133 27.2031 117.133 28.8047V28.8125C117.133 30.4531 117.836 31.3828 118.961 31.3828C119.875 31.3828 120.445 30.8203 120.602 29.9766L120.609 29.9062H122.734V29.9531C122.633 31.5781 121.484 32.8594 119.656 33.125L119.336 33.6406C120.203 33.7266 120.758 34.2422 120.758 35.1562V35.1719C120.758 36.125 119.938 36.7109 118.812 36.7109ZM0.820312 54V42.7266H3.10156V48.9766H3.14844L5.97656 45.625H8.5625L5.39844 49.2266L8.71875 54H6.08594L3.6875 50.5781L3.10156 51.2266V54H0.820312ZM11.7969 54.1328C10.1172 54.1328 8.98438 53.0781 8.98438 51.6016V51.5859C8.98438 50.0625 10.1641 49.1719 12.2422 49.0391L14.3125 48.9141V48.3984C14.3125 47.6562 13.8281 47.1953 12.9375 47.1953C12.0859 47.1953 11.5703 47.5938 11.4609 48.1328L11.4453 48.2031H9.35938L9.36719 48.1094C9.49219 46.5625 10.8203 45.4531 13.0312 45.4531C15.1953 45.4531 16.5938 46.5703 16.5938 48.2578V54H14.3125V52.75H14.2656C13.7891 53.6094 12.8984 54.1328 11.7969 54.1328ZM11.2422 51.4844C11.2422 52.1016 11.75 52.4688 12.5391 52.4688C13.5625 52.4688 14.3125 51.8125 14.3125 50.9375V50.3359L12.5859 50.4453C11.7031 50.5 11.2422 50.875 11.2422 51.4688V51.4844ZM17.8672 54V52.7031L22.0781 47.3828V47.3438H17.9297V45.625H24.6875V47.0703L20.7266 52.2344V52.2812H24.7812V54H17.8672ZM28.6094 54.1328C26.9297 54.1328 25.7969 53.0781 25.7969 51.6016V51.5859C25.7969 50.0625 26.9766 49.1719 29.0547 49.0391L31.125 48.9141V48.3984C31.125 47.6562 30.6406 47.1953 29.75 47.1953C28.8984 47.1953 28.3828 47.5938 28.2734 48.1328L28.2578 48.2031H26.1719L26.1797 48.1094C26.3047 46.5625 27.6328 45.4531 29.8438 45.4531C32.0078 45.4531 33.4062 46.5703 33.4062 48.2578V54H31.125V52.75H31.0781C30.6016 53.6094 29.7109 54.1328 28.6094 54.1328ZM28.0547 51.4844C28.0547 52.1016 28.5625 52.4688 29.3516 52.4688C30.375 52.4688 31.125 51.8125 31.125 50.9375V50.3359L29.3984 50.4453C28.5156 50.5 28.0547 50.875 28.0547 51.4688V51.4844ZM36.1484 56.7578C35.7031 56.7578 35.25 56.7031 34.9844 56.6562V54.9609C35.1484 54.9922 35.4141 55.0391 35.75 55.0391C36.4297 55.0391 36.8047 54.8438 37.0078 54.2734L37.1094 54L34.1484 45.625H36.6562L38.4219 52.1719H38.4844L40.2578 45.625H42.6641L39.7891 54.1484C39.1328 56.125 38.0078 56.7578 36.1484 56.7578ZM43.5078 54V45.625H45.7891V54H43.5078ZM53.9375 54.1719C51.6172 54.1719 50.3281 53.1016 50.1484 51.5156L50.1406 51.4453H52.3672L52.3828 51.5156C52.5312 52.1719 53.0234 52.5547 53.9375 52.5547C54.7969 52.5547 55.3203 52.2188 55.3203 51.6797V51.6719C55.3203 51.2266 55.0391 50.9688 54.2188 50.7891L52.7969 50.4922C51.1719 50.1484 50.3516 49.3359 50.3516 48.0859V48.0781C50.3516 46.4844 51.7266 45.4531 53.8594 45.4531C56.0859 45.4531 57.3281 46.6328 57.3828 48.1016V48.1797H55.2812L55.2734 48.1172C55.1953 47.5156 54.7031 47.0625 53.8594 47.0625C53.0703 47.0625 52.5781 47.4141 52.5781 47.9531V47.9609C52.5781 48.3906 52.8672 48.6719 53.7109 48.8516L55.1328 49.1562C56.8828 49.5234 57.6016 50.2109 57.6016 51.4453V51.4531C57.6016 53.0938 56.0938 54.1719 53.9375 54.1719ZM61.2188 54.1328C59.5391 54.1328 58.4062 53.0781 58.4062 51.6016V51.5859C58.4062 50.0625 59.5859 49.1719 61.6641 49.0391L63.7344 48.9141V48.3984C63.7344 47.6562 63.25 47.1953 62.3594 47.1953C61.5078 47.1953 60.9922 47.5938 60.8828 48.1328L60.8672 48.2031H58.7812L58.7891 48.1094C58.9141 46.5625 60.2422 45.4531 62.4531 45.4531C64.6172 45.4531 66.0156 46.5703 66.0156 48.2578V54H63.7344V52.75H63.6875C63.2109 53.6094 62.3203 54.1328 61.2188 54.1328ZM60.6641 51.4844C60.6641 52.1016 61.1719 52.4688 61.9609 52.4688C62.9844 52.4688 63.7344 51.8125 63.7344 50.9375V50.3359L62.0078 50.4453C61.125 50.5 60.6641 50.875 60.6641 51.4688V51.4844ZM67.4922 54V45.625H69.7734V47H69.8203C70.25 46.0391 71.1094 45.4531 72.375 45.4531C74.2188 45.4531 75.2656 46.6328 75.2656 48.5938V54H72.9844V49.0625C72.9844 47.9688 72.4688 47.3438 71.4453 47.3438C70.4219 47.3438 69.7734 48.0938 69.7734 49.1875V54H67.4922ZM77.8984 44.5469C77.2109 44.5469 76.6797 44.0078 76.6797 43.3594C76.6797 42.7109 77.2109 42.1719 77.8984 42.1719C78.5859 42.1719 79.1172 42.7109 79.1172 43.3594C79.1172 44.0078 78.5859 44.5469 77.8984 44.5469ZM76.7578 54V45.625H79.0391V54H76.7578ZM81.8828 56.7578C81.4375 56.7578 80.9844 56.7031 80.7188 56.6562V54.9609C80.8828 54.9922 81.1484 55.0391 81.4844 55.0391C82.1641 55.0391 82.5391 54.8438 82.7422 54.2734L82.8438 54L79.8828 45.625H82.3906L84.1562 52.1719H84.2188L85.9922 45.625H88.3984L85.5234 54.1484C84.8672 56.125 83.7422 56.7578 81.8828 56.7578ZM92.7109 54.1719C90.1484 54.1719 88.5938 52.5078 88.5938 49.8281V49.8203C88.5938 47.1562 90.1641 45.4531 92.6172 45.4531C95.0703 45.4531 96.6094 47.1172 96.6094 49.6484V50.3516H90.8438C90.8672 51.6875 91.5938 52.4688 92.7578 52.4688C93.6953 52.4688 94.2656 51.9531 94.4297 51.4844L94.4453 51.4375H96.5391L96.5156 51.5234C96.2578 52.7578 95.1016 54.1719 92.7109 54.1719ZM92.6562 47.1562C91.7188 47.1562 91.0156 47.7812 90.8672 48.9141H94.4219C94.2812 47.7578 93.6016 47.1562 92.6562 47.1562ZM104.406 54.1719C102.086 54.1719 100.797 53.1016 100.617 51.5156L100.609 51.4453H102.836L102.852 51.5156C103 52.1719 103.492 52.5547 104.406 52.5547C105.266 52.5547 105.789 52.2188 105.789 51.6797V51.6719C105.789 51.2266 105.508 50.9688 104.688 50.7891L103.266 50.4922C101.641 50.1484 100.82 49.3359 100.82 48.0859V48.0781C100.82 46.4844 102.195 45.4531 104.328 45.4531C106.555 45.4531 107.797 46.6328 107.852 48.1016V48.1797H105.75L105.742 48.1172C105.664 47.5156 105.172 47.0625 104.328 47.0625C103.539 47.0625 103.047 47.4141 103.047 47.9531V47.9609C103.047 48.3906 103.336 48.6719 104.18 48.8516L105.602 49.1562C107.352 49.5234 108.07 50.2109 108.07 51.4453V51.4531C108.07 53.0938 106.562 54.1719 104.406 54.1719ZM111.688 54.1328C110.008 54.1328 108.875 53.0781 108.875 51.6016V51.5859C108.875 50.0625 110.055 49.1719 112.133 49.0391L114.203 48.9141V48.3984C114.203 47.6562 113.719 47.1953 112.828 47.1953C111.977 47.1953 111.461 47.5938 111.352 48.1328L111.336 48.2031H109.25L109.258 48.1094C109.383 46.5625 110.711 45.4531 112.922 45.4531C115.086 45.4531 116.484 46.5703 116.484 48.2578V54H114.203V52.75H114.156C113.68 53.6094 112.789 54.1328 111.688 54.1328ZM111.133 51.4844C111.133 52.1016 111.641 52.4688 112.43 52.4688C113.453 52.4688 114.203 51.8125 114.203 50.9375V50.3359L112.477 50.4453C111.594 50.5 111.133 50.875 111.133 51.4688V51.4844ZM117.961 54V45.625H120.242V47H120.289C120.719 46.0391 121.578 45.4531 122.844 45.4531C124.688 45.4531 125.734 46.6328 125.734 48.5938V54H123.453V49.0625C123.453 47.9688 122.938 47.3438 121.914 47.3438C120.891 47.3438 120.242 48.0938 120.242 49.1875V54H117.961ZM128.367 44.5469C127.68 44.5469 127.148 44.0078 127.148 43.3594C127.148 42.7109 127.68 42.1719 128.367 42.1719C129.055 42.1719 129.586 42.7109 129.586 43.3594C129.586 44.0078 129.055 44.5469 128.367 44.5469ZM127.227 54V45.625H129.508V54H127.227ZM132.352 56.7578C131.906 56.7578 131.453 56.7031 131.188 56.6562V54.9609C131.352 54.9922 131.617 55.0391 131.953 55.0391C132.633 55.0391 133.008 54.8438 133.211 54.2734L133.312 54L130.352 45.625H132.859L134.625 52.1719H134.688L136.461 45.625H138.867L135.992 54.1484C135.336 56.125 134.211 56.7578 132.352 56.7578ZM143.18 54.1719C140.617 54.1719 139.062 52.5078 139.062 49.8281V49.8203C139.062 47.1562 140.633 45.4531 143.086 45.4531C145.539 45.4531 147.078 47.1172 147.078 49.6484V50.3516H141.312C141.336 51.6875 142.062 52.4688 143.227 52.4688C144.164 52.4688 144.734 51.9531 144.898 51.4844L144.914 51.4375H147.008L146.984 51.5234C146.727 52.7578 145.57 54.1719 143.18 54.1719ZM143.125 47.1562C142.188 47.1562 141.484 47.7812 141.336 48.9141H144.891C144.75 47.7578 144.07 47.1562 143.125 47.1562ZM3.23438 75.1328C1.55469 75.1328 0.421875 74.0781 0.421875 72.6016V72.5859C0.421875 71.0625 1.60156 70.1719 3.67969 70.0391L5.75 69.9141V69.3984C5.75 68.6562 5.26562 68.1953 4.375 68.1953C3.52344 68.1953 3.00781 68.5938 2.89844 69.1328L2.88281 69.2031H0.796875L0.804688 69.1094C0.929688 67.5625 2.25781 66.4531 4.46875 66.4531C6.63281 66.4531 8.03125 67.5703 8.03125 69.2578V75H5.75V73.75H5.70312C5.22656 74.6094 4.33594 75.1328 3.23438 75.1328ZM2.67969 72.4844C2.67969 73.1016 3.1875 73.4688 3.97656 73.4688C5 73.4688 5.75 72.8125 5.75 71.9375V71.3359L4.02344 71.4453C3.14062 71.5 2.67969 71.875 2.67969 72.4688V72.4844ZM9.50781 75V66.625H11.7891V68H11.8359C12.2656 67.0391 13.125 66.4531 14.3906 66.4531C16.2344 66.4531 17.2812 67.6328 17.2812 69.5938V75H15V70.0625C15 68.9688 14.4844 68.3438 13.4609 68.3438C12.4375 68.3438 11.7891 69.0938 11.7891 70.1875V75H9.50781ZM18.7812 75V63.7266H21.0625V75H18.7812ZM25.0938 75.1328C23.4141 75.1328 22.2812 74.0781 22.2812 72.6016V72.5859C22.2812 71.0625 23.4609 70.1719 25.5391 70.0391L27.6094 69.9141V69.3984C27.6094 68.6562 27.125 68.1953 26.2344 68.1953C25.3828 68.1953 24.8672 68.5938 24.7578 69.1328L24.7422 69.2031H22.6562L22.6641 69.1094C22.7891 67.5625 24.1172 66.4531 26.3281 66.4531C28.4922 66.4531 29.8906 67.5703 29.8906 69.2578V75H27.6094V73.75H27.5625C27.0859 74.6094 26.1953 75.1328 25.0938 75.1328ZM24.5391 72.4844C24.5391 73.1016 25.0469 73.4688 25.8359 73.4688C26.8594 73.4688 27.6094 72.8125 27.6094 71.9375V71.3359L25.8828 71.4453C25 71.5 24.5391 71.875 24.5391 72.4688V72.4844ZM34.6953 75.1719C32.8359 75.1719 31.9609 74.4531 31.9609 72.6562V68.3438H30.7969V66.625H31.9609V64.5781H34.2656V66.625H35.7969V68.3438H34.2656V72.4062C34.2656 73.1875 34.6172 73.4531 35.3047 73.4531C35.5078 73.4531 35.6562 73.4297 35.7969 73.4141V75.0859C35.5391 75.125 35.1719 75.1719 34.6953 75.1719ZM40.3828 75.1719C38.5234 75.1719 37.6484 74.4531 37.6484 72.6562V68.3438H36.4844V66.625H37.6484V64.5781H39.9531V66.625H41.4844V68.3438H39.9531V72.4062C39.9531 73.1875 40.3047 73.4531 40.9922 73.4531C41.1953 73.4531 41.3438 73.4297 41.4844 73.4141V75.0859C41.2266 75.125 40.8594 75.1719 40.3828 75.1719ZM42.7891 75V66.625H45.0703V75H42.7891ZM47.7891 69.5703C47.0781 69.5703 46.5234 69.0156 46.5234 68.3047C46.5234 67.6016 47.0781 67.0391 47.7891 67.0391C48.4922 67.0391 49.0547 67.6016 49.0547 68.3047C49.0547 69.0156 48.4922 69.5703 47.7891 69.5703ZM47.7891 75.1328C47.0781 75.1328 46.5234 74.5703 46.5234 73.8672C46.5234 73.1562 47.0781 72.6016 47.7891 72.6016C48.4922 72.6016 49.0547 73.1562 49.0547 73.8672C49.0547 74.5703 48.4922 75.1328 47.7891 75.1328ZM56.9609 75.1719C55.1016 75.1719 54.2266 74.4531 54.2266 72.6562V68.3438H53.0625V66.625H54.2266V64.5781H56.5312V66.625H58.0625V68.3438H56.5312V72.4062C56.5312 73.1875 56.8828 73.4531 57.5703 73.4531C57.7734 73.4531 57.9219 73.4297 58.0625 73.4141V75.0859C57.8047 75.125 57.4375 75.1719 56.9609 75.1719ZM61.4766 65.5156C60.8438 65.5156 60.3516 65.0234 60.3516 64.4219C60.3516 63.8203 60.8438 63.3281 61.4766 63.3281C62.1094 63.3281 62.6016 63.8203 62.6016 64.4219C62.6016 65.0234 62.1094 65.5156 61.4766 65.5156ZM64.8516 65.5156C64.2266 65.5156 63.7344 65.0234 63.7344 64.4219C63.7344 63.8203 64.2266 63.3281 64.8516 63.3281C65.4922 63.3281 65.9766 63.8203 65.9766 64.4219C65.9766 65.0234 65.4922 65.5156 64.8516 65.5156ZM62.1719 75.1719C60.3281 75.1719 59.2812 73.9922 59.2812 72.0312V66.625H61.5625V71.5547C61.5625 72.6484 62.0781 73.2812 63.1016 73.2812C64.125 73.2812 64.7734 72.5312 64.7734 71.4375V66.625H67.0547V75H64.7734V73.6172H64.7266C64.2969 74.5781 63.4375 75.1719 62.1719 75.1719ZM68.5391 75V66.625H70.8203V68.0312H70.8672C71.2109 67.0781 72.0859 66.4531 73.2109 66.4531C74.3828 66.4531 75.2344 67.0781 75.5156 68.1797H75.5625C75.9375 67.125 76.9375 66.4531 78.1641 66.4531C79.8047 66.4531 80.9062 67.5859 80.9062 69.2734V75H78.625V69.8438C78.625 68.875 78.1406 68.3438 77.2578 68.3438C76.3906 68.3438 75.8203 68.9766 75.8203 69.9062V75H73.625V69.7734C73.625 68.875 73.1172 68.3438 72.2734 68.3438C71.4062 68.3438 70.8203 69 70.8203 69.9453V75H68.5391ZM89.3672 75.1719C86.8203 75.1719 85.2188 73.5391 85.2188 70.8125V70.7969C85.2188 68.1016 86.8594 66.4531 89.3594 66.4531C91.8672 66.4531 93.5156 68.0859 93.5156 70.7969V70.8125C93.5156 73.5469 91.8984 75.1719 89.3672 75.1719ZM89.375 73.3828C90.4844 73.3828 91.1953 72.4453 91.1953 70.8125V70.7969C91.1953 69.1797 90.4688 68.2422 89.3594 68.2422C88.2578 68.2422 87.5391 69.1797 87.5391 70.7969V70.8125C87.5391 72.4531 88.25 73.3828 89.375 73.3828ZM94.75 75V63.7266H97.0312V75H94.75ZM101.062 75.1328C99.3828 75.1328 98.25 74.0781 98.25 72.6016V72.5859C98.25 71.0625 99.4297 70.1719 101.508 70.0391L103.578 69.9141V69.3984C103.578 68.6562 103.094 68.1953 102.203 68.1953C101.352 68.1953 100.836 68.5938 100.727 69.1328L100.711 69.2031H98.625L98.6328 69.1094C98.7578 67.5625 100.086 66.4531 102.297 66.4531C104.461 66.4531 105.859 67.5703 105.859 69.2578V75H103.578V73.75H103.531C103.055 74.6094 102.164 75.1328 101.062 75.1328ZM100.508 72.4844C100.508 73.1016 101.016 73.4688 101.805 73.4688C102.828 73.4688 103.578 72.8125 103.578 71.9375V71.3359L101.852 71.4453C100.969 71.5 100.508 71.875 100.508 72.4688V72.4844ZM107.336 75V66.625H109.617V68H109.664C110.094 67.0391 110.953 66.4531 112.219 66.4531C114.062 66.4531 115.109 67.6328 115.109 69.5938V75H112.828V70.0625C112.828 68.9688 112.312 68.3438 111.289 68.3438C110.266 68.3438 109.617 69.0938 109.617 70.1875V75H107.336ZM124.688 75.1719C123.484 75.1719 122.562 74.5625 122.109 73.5703H122.062V75H119.781V63.7266H122.062V68.0781H122.109C122.57 67.0625 123.5 66.4531 124.695 66.4531C126.797 66.4531 128.102 68.0781 128.102 70.8047V70.8125C128.102 73.5312 126.797 75.1719 124.688 75.1719ZM123.93 73.2812C125.062 73.2812 125.781 72.3359 125.781 70.8125V70.8047C125.781 69.2734 125.062 68.3438 123.93 68.3438C122.828 68.3438 122.062 69.2969 122.062 70.8047V70.8125C122.062 72.3281 122.82 73.2812 123.93 73.2812ZM130.461 65.5469C129.773 65.5469 129.242 65.0078 129.242 64.3594C129.242 63.7109 129.773 63.1719 130.461 63.1719C131.148 63.1719 131.68 63.7109 131.68 64.3594C131.68 65.0078 131.148 65.5469 130.461 65.5469ZM129.32 75V66.625H131.602V75H129.32ZM136.461 75.1719C134.602 75.1719 133.727 74.4531 133.727 72.6562V68.3438H132.562V66.625H133.727V64.5781H136.031V66.625H137.562V68.3438H136.031V72.4062C136.031 73.1875 136.383 73.4531 137.07 73.4531C137.273 73.4531 137.422 73.4297 137.562 73.4141V75.0859C137.305 75.125 136.938 75.1719 136.461 75.1719ZM142.508 75.1719C139.945 75.1719 138.391 73.5078 138.391 70.8281V70.8203C138.391 68.1562 139.961 66.4531 142.414 66.4531C144.867 66.4531 146.406 68.1172 146.406 70.6484V71.3516H140.641C140.664 72.6875 141.391 73.4688 142.555 73.4688C143.492 73.4688 144.062 72.9531 144.227 72.4844L144.242 72.4375H146.336L146.312 72.5234C146.055 73.7578 144.898 75.1719 142.508 75.1719ZM142.453 68.1562C141.516 68.1562 140.812 68.7812 140.664 69.9141H144.219C144.078 68.7578 143.398 68.1562 142.453 68.1562ZM148.773 75.1328C148.062 75.1328 147.508 74.5703 147.508 73.8672C147.508 73.1562 148.062 72.6016 148.773 72.6016C149.477 72.6016 150.039 73.1562 150.039 73.8672C150.039 74.5703 149.477 75.1328 148.773 75.1328ZM152.289 75.1328C151.578 75.1328 151.023 74.5703 151.023 73.8672C151.023 73.1562 151.578 72.6016 152.289 72.6016C152.992 72.6016 153.555 73.1562 153.555 73.8672C153.555 74.5703 152.992 75.1328 152.289 75.1328ZM155.805 75.1328C155.102 75.1328 154.539 74.5703 154.539 73.8672C154.539 73.1562 155.102 72.6016 155.805 72.6016C156.516 72.6016 157.07 73.1562 157.07 73.8672C157.07 74.5703 156.516 75.1328 155.805 75.1328Z" fill="#333333"/>
</svg>
